<?xml version="1.0" encoding="UTF-8" standalone="no"?>
<!DOCTYPE svg PUBLIC "-//W3C//DTD SVG 1.1//EN" "http://www.w3.org/Graphics/SVG/1.1/DTD/svg11.dtd">
<svg width="100%" height="100%" viewBox="0 0 500 500" version="1.1" xmlns="http://www.w3.org/2000/svg" xmlns:xlink="http://www.w3.org/1999/xlink" xml:space="preserve" xmlns:serif="http://www.serif.com/" style="fill-rule:evenodd;clip-rule:evenodd;stroke-linejoin:round;stroke-miterlimit:2;">
    <g transform="matrix(1,0,0,1,-2,-7)">
        <path d="M457,152.608C457,97.081 411.919,52 356.392,52L147.608,52C92.081,52 47,97.081 47,152.608L47,361.392C47,416.919 92.081,462 147.608,462L356.392,462C411.919,462 457,416.919 457,361.392L457,152.608Z" style="fill:white;"/>
    </g>
    <g id="remote.svg" transform="matrix(1.32,0,0,1.32,250,250)">
        <g transform="matrix(1,0,0,1,-100,-100)">
            <path d="M100,0C74.667,0 51.75,10.25 35.167,26.833L46.917,38.583C60.972,24.492 80.098,16.596 100,16.667C120.833,16.667 139.5,25 153,38.667L164.75,26.917C148.25,10.25 125.333,0 100,0M58.75,50.417L70.5,62.167C86.715,46.053 113.285,46.053 129.5,62.167L141.25,50.417C130.326,39.463 115.47,33.31 100,33.333C83.917,33.333 69.333,39.833 58.75,50.417M100,125C90.833,125 83.333,117.5 83.333,108.333C83.333,99.167 90.833,91.667 100,91.667C109.167,91.667 116.667,99.167 116.667,108.333C116.667,117.5 109.167,125 100,125M125,75L75,75C70.417,75 66.667,78.75 66.667,83.333L66.667,183.333C66.667,187.917 70.417,191.667 75,191.667L125,191.667C129.583,191.667 133.333,187.917 133.333,183.333L133.333,83.333C133.333,78.75 129.583,75 125,75Z" style="fill:rgb(38,189,164);fill-rule:nonzero;"/>
        </g>
    </g>
</svg>
