<?xml version="1.0" encoding="UTF-8" standalone="no"?>
<!DOCTYPE svg PUBLIC "-//W3C//DTD SVG 1.1//EN" "http://www.w3.org/Graphics/SVG/1.1/DTD/svg11.dtd">
<svg width="100%" height="100%" viewBox="0 0 512 512" version="1.1" xmlns="http://www.w3.org/2000/svg" xmlns:xlink="http://www.w3.org/1999/xlink" xml:space="preserve" xmlns:serif="http://www.serif.com/" style="fill-rule:evenodd;clip-rule:evenodd;stroke-linejoin:round;stroke-miterlimit:2;">
    <g transform="matrix(1,0,0,1,-40,-260)">
        <path d="M502,401.559L502,630.441C502,680.974 460.974,722 410.441,722L181.559,722C131.026,722 90,680.974 90,630.441L90,401.559C90,351.026 131.026,310 181.559,310L410.441,310C460.974,310 502,351.026 502,401.559Z" style="fill:rgb(0,164,215);"/>
    </g>
    <g>
        <clipPath id="_clip1">
            <path d="M382.129,190.535L382.129,334.535C382.129,361.027 360.621,382.535 334.129,382.535L190.129,382.535C163.637,382.535 142.129,361.027 142.129,334.535L142.129,190.535C142.129,164.043 163.637,142.535 190.129,142.535L334.129,142.535C360.621,142.535 382.129,164.043 382.129,190.535Z"/>
        </clipPath>
        <g clip-path="url(#_clip1)">
            <g transform="matrix(0.50895,0,0,0.50895,69.7922,69.9918)">
                <rect x="142.129" y="142.535" width="235.779" height="235.779" style="fill:white;"/>
            </g>
            <g transform="matrix(0.50895,0,0,0.50895,189.792,69.9918)">
                <rect x="142.129" y="142.535" width="235.779" height="235.779" style="fill:white;fill-opacity:0.6;"/>
            </g>
            <g transform="matrix(0.50895,0,0,0.50895,69.7922,189.992)">
                <rect x="142.129" y="142.535" width="235.779" height="235.779" style="fill:white;fill-opacity:0.4;"/>
            </g>
            <g transform="matrix(0.50895,0,0,0.50895,189.792,189.992)">
                <rect x="142.129" y="142.535" width="235.779" height="235.779" style="fill:white;fill-opacity:0.8;"/>
            </g>
        </g>
    </g>
</svg>
