<?xml version="1.0" encoding="UTF-8" standalone="no"?>
<!DOCTYPE svg PUBLIC "-//W3C//DTD SVG 1.1//EN" "http://www.w3.org/Graphics/SVG/1.1/DTD/svg11.dtd">
<svg width="100%" height="100%" viewBox="0 0 500 500" version="1.1" xmlns="http://www.w3.org/2000/svg" xmlns:xlink="http://www.w3.org/1999/xlink" xml:space="preserve" xmlns:serif="http://www.serif.com/" style="fill-rule:evenodd;clip-rule:evenodd;stroke-linejoin:round;stroke-miterlimit:2;">
    <g transform="matrix(1,0,0,1,-2,-7)">
        <path d="M457,152.608C457,97.081 411.919,52 356.392,52L147.608,52C92.081,52 47,97.081 47,152.608L47,361.392C47,416.919 92.081,462 147.608,462L356.392,462C411.919,462 457,416.919 457,361.392L457,152.608Z" style="fill:rgb(16,154,16);"/>
    </g>
    <g id="Media.svg" transform="matrix(1.36,0,0,1.36,256.745,250)">
        <g transform="matrix(1,0,0,1,-100,-100)">
            <path d="M48.808,16.667L114.475,16.667C117.428,16.669 120.287,17.717 122.542,19.625L162.242,53.2C165.046,55.574 166.667,59.067 166.667,62.742L166.667,167.358C166.667,182.275 166.5,183.333 151.192,183.333L48.808,183.333C33.5,183.333 33.333,182.283 33.333,167.358L33.333,32.642C33.333,17.725 33.5,16.667 48.808,16.667Z" style="fill:white;fill-rule:nonzero;"/>
            <path d="M89.85,131.708L126.55,106.625C127.679,105.848 128.356,104.562 128.356,103.192C128.356,101.821 127.679,100.535 126.55,99.758L89.858,74.508C89.164,74.032 88.342,73.777 87.5,73.777C85.214,73.777 83.333,75.658 83.333,77.943C83.333,77.946 83.333,77.948 83.333,77.95L83.333,128.275C83.337,130.558 85.217,132.434 87.5,132.434C88.338,132.434 89.158,132.181 89.85,131.708Z" style="fill:rgb(16,154,16);fill-rule:nonzero;"/>
        </g>
    </g>
    <g transform="matrix(1,0,0,1,-14,-9)">
        <path d="M416,340.5L416,405.5C416,423.437 401.437,438 383.5,438L318.5,438C300.563,438 286,423.437 286,405.5L286,340.5C286,322.563 300.563,308 318.5,308L383.5,308C401.437,308 416,322.563 416,340.5Z" style="fill:rgb(16,154,16);"/>
    </g>
    <g id="icon_convert.svg" transform="matrix(0.54,0,0,0.54,332,354)">
        <g transform="matrix(1,0,0,1,-100,-100)">
            <path d="M50,94.825L50,62.5L150,62.5L150,87.5L187.5,50L150,12.5L150,37.5L38.125,37.5C30.925,37.5 25,43.425 25,50.625L25,119.825L50,94.825Z" style="fill:white;fill-rule:nonzero;"/>
            <path d="M150,105.175L150,137.5L50,137.5L50,112.5L12.5,150L50,187.5L50,162.5L161.875,162.5C169.075,162.5 175,156.575 175,149.375L175,80.175L150,105.175Z" style="fill:white;fill-rule:nonzero;"/>
        </g>
    </g>
</svg>
