<?xml version="1.0" encoding="UTF-8" standalone="no"?>
<!DOCTYPE svg PUBLIC "-//W3C//DTD SVG 1.1//EN" "http://www.w3.org/Graphics/SVG/1.1/DTD/svg11.dtd">
<svg width="100%" height="100%" viewBox="0 0 512 512" version="1.1" xmlns="http://www.w3.org/2000/svg" xmlns:xlink="http://www.w3.org/1999/xlink" xml:space="preserve" xmlns:serif="http://www.serif.com/" style="fill-rule:evenodd;clip-rule:evenodd;stroke-linejoin:round;stroke-miterlimit:2;">
    <g transform="matrix(1,0,0,1,-40,-260)">
        <path d="M502,401.559L502,630.441C502,680.974 460.974,722 410.441,722L181.559,722C131.026,722 90,680.974 90,630.441L90,401.559C90,351.026 131.026,310 181.559,310L410.441,310C460.974,310 502,351.026 502,401.559Z" style="fill:rgb(160,207,106);"/>
    </g>
    <g id="archive.svg" transform="matrix(1.34,0,0,1.34,256,256)">
        <g transform="matrix(1,0,0,1,-100,-100)">
            <path d="M154.279,59.388L45.724,59.388C43.585,59.388 41.852,61.178 41.852,63.377C41.852,65.575 43.585,67.355 45.724,67.355L154.279,67.355C156.419,67.355 158.151,65.563 158.151,63.377C158.151,61.19 156.419,59.388 154.279,59.388ZM158.151,39.21L41.852,39.21C39.701,39.21 37.967,40.989 37.967,43.187C37.967,45.385 39.701,47.152 41.852,47.152L158.151,47.152C160.303,47.152 162.036,45.385 162.036,43.175C162.036,40.989 160.303,39.21 158.151,39.21ZM190.994,80.706L175.702,23.544C175.667,23.404 175.632,23.289 175.573,23.149C173.165,16.857 169.653,12.67 160.315,12.67L39.433,13.007C31.687,13.007 27.14,16.135 24.21,23.427C24.151,23.59 24.093,23.754 24.058,23.904L8.892,82.276C7.718,83.427 6.962,84.881 6.962,86.567L6.962,178.041C6.962,182.414 12.067,186.647 16.324,186.647L186.912,186.647C191.169,186.647 193.042,182.414 193.042,178.041L193.042,86.567C193.042,84.02 192.378,81.973 190.994,80.706ZM146.521,145.29L53.482,145.29L53.482,122.03L146.521,122.03L146.521,145.29ZM134.891,87.137C134.891,87.137 126.668,87.242 122.61,87.242L79.336,87.242C75.277,87.242 65.113,87.137 65.113,87.137L18.592,87.137L31.478,26.219C33.06,22.346 34.56,20.974 39.444,20.974L160.337,20.625C165.711,20.625 166.792,21.997 168.293,25.859L181.411,87.137L134.891,87.137L134.891,87.137Z" style="fill:white;fill-rule:nonzero;"/>
        </g>
    </g>
</svg>
