<?xml version="1.0" encoding="UTF-8" standalone="no"?>
<!DOCTYPE svg PUBLIC "-//W3C//DTD SVG 1.1//EN" "http://www.w3.org/Graphics/SVG/1.1/DTD/svg11.dtd">
<svg width="100%" height="100%" viewBox="0 0 512 512" version="1.1" xmlns="http://www.w3.org/2000/svg" xmlns:xlink="http://www.w3.org/1999/xlink" xml:space="preserve" xmlns:serif="http://www.serif.com/" style="fill-rule:evenodd;clip-rule:evenodd;stroke-linejoin:round;stroke-miterlimit:2;">
    <g transform="matrix(1,0,0,1,-40,-260)">
        <path d="M502,401.559L502,630.441C502,680.974 460.974,722 410.441,722L181.559,722C131.026,722 90,680.974 90,630.441L90,401.559C90,351.026 131.026,310 181.559,310L410.441,310C460.974,310 502,351.026 502,401.559Z" style="fill:rgb(154,197,255);"/>
    </g>
    <g transform="matrix(0.943935,0,0,0.943935,13.8464,14.7076)">
        <g transform="matrix(1.515,0,0,1.515,256,256)">
            <g transform="matrix(1,0,0,1,-100,-100)">
                <g transform="matrix(0.195312,0,0,0.195312,0,-9.5)">
                    <path d="M853.333,139.947L170.667,139.947C99.979,139.947 42.667,197.259 42.667,267.947L42.667,853.333C42.667,924.021 99.979,981.333 170.667,981.333L853.333,981.333C924.021,981.333 981.333,924.021 981.333,853.333L981.333,267.947C981.333,197.259 924.021,139.947 853.333,139.947ZM896,714.496L682.667,506.283L195.659,896L170.667,896C147.093,896 128,876.907 128,853.333L128,267.947C128,244.373 147.093,225.28 170.667,225.28L853.333,225.28C876.907,225.28 896,244.373 896,267.947L896,714.496ZM341.333,310.613C270.645,310.613 213.333,367.925 213.333,438.613C213.333,509.301 270.645,566.613 341.333,566.613C412.021,566.613 469.333,509.301 469.333,438.613C469.333,367.925 412.021,310.613 341.333,310.613Z" style="fill:white;fill-rule:nonzero;"/>
                </g>
            </g>
        </g>
        <g transform="matrix(0.799662,0,0,0.82083,166.409,338.083)">
            <g transform="matrix(1,0,0,1,-100,-100)">
                <clipPath id="_clip1">
                    <rect x="0" y="0" width="200" height="200"/>
                </clipPath>
                <g clip-path="url(#_clip1)">
                    <g transform="matrix(1.29032,0,0,1.29032,-28.3871,-11.6129)">
                        <circle cx="99.5" cy="86.5" r="77.5" style="fill:rgb(154,197,255);"/>
                    </g>
                    <g transform="matrix(0.172991,0,0,0.172991,11.4286,11.4286)">
                        <path d="M512,65.836C431.213,65.836 356.546,86.033 288,126.426C219.454,166.819 164.984,221.289 124.59,289.836C84.196,358.383 64,433.049 64,513.836C64,594.623 84.197,669.29 124.59,737.836C164.983,806.382 219.454,860.24 288,899.41C356.546,938.579 431.213,958.164 512,958.164C592.787,958.164 667.454,938.579 736,899.41C804.546,860.241 859.016,806.383 899.41,737.836C939.804,669.289 960,594.623 960,513.836C960,433.049 939.803,358.382 899.41,289.836C859.017,221.29 804.546,166.82 736,126.426C667.454,86.032 592.787,65.836 512,65.836ZM706.623,341.246C691.935,275.148 669.902,213.945 640.525,157.639C684.591,172.328 724.984,195.584 761.705,227.409C798.426,259.234 827.803,297.179 849.836,341.245L706.623,341.245L706.623,341.246ZM890.229,546.885C887.781,571.366 884.109,594.623 879.213,616.656L706.623,616.656C716.415,570.142 721.312,523.629 721.312,477.115C721.312,457.53 720.088,435.498 717.64,411.017L879.214,411.017C886.558,442.842 891.454,477.115 893.902,513.837C893.902,523.628 892.678,534.645 890.229,546.885ZM647.869,546.885C645.421,568.918 641.749,592.175 636.853,616.656L390.82,616.656C381.028,570.142 376.131,523.629 376.131,477.115C376.134,455.031 377.36,432.965 379.803,411.017L644.196,411.017C649.092,433.05 651.54,455.083 651.54,477.115C651.537,499.199 650.311,521.265 647.868,543.213L647.868,546.885L647.869,546.885ZM394.492,341.246C409.181,267.803 437.334,199.257 478.951,135.607L548.721,135.607C587.89,199.257 616.043,267.804 633.18,341.246L394.492,341.246ZM177.836,341.246C199.869,297.18 228.634,259.235 264.131,227.41C299.628,195.585 340.634,171.104 387.147,153.967C355.322,212.721 333.289,275.147 321.049,341.246L177.836,341.246ZM148.459,411.016L310.033,411.016C307.585,435.497 306.361,457.53 306.361,477.114C306.361,523.628 311.257,570.141 321.05,616.655L148.46,616.655C138.667,582.383 133.77,547.497 133.77,512C133.77,476.503 138.666,441.617 148.459,407.344L148.459,411.016ZM339.41,686.426C361.443,757.421 394.492,823.519 438.558,884.721C382.252,872.481 330.842,849.224 284.329,814.95C237.816,780.676 202.318,736.611 177.837,682.753L339.41,682.753L339.41,686.426ZM512,866.361C467.934,812.503 434.885,752.525 412.852,686.427L614.82,686.427C590.339,752.525 556.066,812.503 512,866.361ZM849.836,682.754C822.907,736.612 786.798,780.678 741.508,814.951C696.218,849.224 645.421,872.481 589.115,884.722C633.181,823.52 666.23,756.197 688.263,682.755L849.836,682.755L849.836,682.754Z" style="fill:white;fill-rule:nonzero;"/>
                    </g>
                </g>
            </g>
        </g>
    </g>
</svg>
