<?xml version="1.0" encoding="UTF-8" standalone="no"?>
<!DOCTYPE svg PUBLIC "-//W3C//DTD SVG 1.1//EN" "http://www.w3.org/Graphics/SVG/1.1/DTD/svg11.dtd">
<svg width="100%" height="100%" viewBox="0 0 500 500" version="1.1" xmlns="http://www.w3.org/2000/svg" xmlns:xlink="http://www.w3.org/1999/xlink" xml:space="preserve" xmlns:serif="http://www.serif.com/" style="fill-rule:evenodd;clip-rule:evenodd;stroke-linejoin:round;stroke-miterlimit:2;">
    <g transform="matrix(1,0,0,1,-2,-7)">
        <path d="M457,152.608C457,97.081 411.919,52 356.392,52L147.608,52C92.081,52 47,97.081 47,152.608L47,361.392C47,416.919 92.081,462 147.608,462L356.392,462C411.919,462 457,416.919 457,361.392L457,152.608Z" style="fill:rgb(255,193,7);"/>
    </g>
    <g transform="matrix(0.837758,0,0,0.837758,36.0605,44.5605)">
        <g transform="matrix(1,0,0,1,-45.5,-25)">
            <path d="M402,223.8C402,279.433 340.164,324.6 264,324.6C251.926,324.6 239.905,323.443 228.244,321.158L167.4,375L184.813,306.353C147.951,287.488 126,256.677 126,223.8C126,168.167 187.836,123 264,123C340.164,123 402,168.167 402,223.8Z" style="fill:rgb(255,230,156);"/>
        </g>
        <g transform="matrix(-1,0,0,1,556.243,41.3239)">
            <path d="M402,223.8C402,279.433 340.164,324.6 264,324.6C251.926,324.6 239.905,323.443 228.244,321.158L167.4,375L184.813,306.353C147.951,287.488 126,256.677 126,223.8C126,168.167 187.836,123 264,123C340.164,123 402,168.167 402,223.8Z" style="fill:white;"/>
        </g>
    </g>
</svg>
