<?xml version="1.0" encoding="UTF-8" standalone="no"?>
<!DOCTYPE svg PUBLIC "-//W3C//DTD SVG 1.1//EN" "http://www.w3.org/Graphics/SVG/1.1/DTD/svg11.dtd">
<svg width="100%" height="100%" viewBox="0 0 500 500" version="1.1" xmlns="http://www.w3.org/2000/svg" xmlns:xlink="http://www.w3.org/1999/xlink" xml:space="preserve" xmlns:serif="http://www.serif.com/" style="fill-rule:evenodd;clip-rule:evenodd;stroke-linejoin:round;stroke-miterlimit:2;">
    <g transform="matrix(1,0,0,1,-2,-7)">
        <path d="M457,152.608C457,97.081 411.919,52 356.392,52L147.608,52C92.081,52 47,97.081 47,152.608L47,361.392C47,416.919 92.081,462 147.608,462L356.392,462C411.919,462 457,416.919 457,361.392L457,152.608Z" style="fill:rgb(119,128,254);"/>
    </g>
    <g transform="matrix(0.930536,0,0,0.930536,18.1168,18.309)">
        <g id="photo" transform="matrix(1.31291,0,0,1.31291,249.193,248.987)">
            <g transform="matrix(1,0,0,1,-107.227,-100)">
                <clipPath id="_clip1">
                    <rect x="0" y="0" width="214.453" height="200"/>
                </clipPath>
                <g clip-path="url(#_clip1)">
                    <path d="M71.429,64.286C71.429,70.238 69.345,75.298 65.179,79.464C61.012,83.631 55.952,85.714 50,85.714C44.048,85.714 38.988,83.631 34.821,79.464C30.655,75.298 28.571,70.238 28.571,64.286C28.571,58.333 30.655,53.274 34.821,49.107C38.988,44.94 44.048,42.857 50,42.857C55.952,42.857 61.012,44.94 65.179,49.107C69.345,53.274 71.429,58.333 71.429,64.286ZM185.714,107.143L185.714,157.143L28.571,157.143L28.571,135.714L64.286,100L82.143,117.857L139.286,60.714L185.714,107.143ZM196.429,28.571L17.857,28.571C16.89,28.571 16.053,28.925 15.346,29.632C14.639,30.339 14.286,31.176 14.286,32.143L14.286,167.857C14.286,168.824 14.639,169.661 15.346,170.368C16.053,171.075 16.89,171.429 17.857,171.429L196.429,171.429C197.396,171.429 198.233,171.075 198.94,170.368C199.647,169.661 200,168.824 200,167.857L200,32.143C200,31.176 199.647,30.339 198.94,29.632C198.233,28.925 197.396,28.571 196.429,28.571ZM214.286,32.143L214.286,167.857C214.286,172.768 212.537,176.972 209.04,180.469C205.543,183.966 201.339,185.714 196.429,185.714L17.857,185.714C12.946,185.714 8.743,183.966 5.246,180.469C1.749,176.972 -0,172.768 -0,167.857L-0,32.143C-0,27.232 1.749,23.028 5.246,19.531C8.743,16.034 12.946,14.286 17.857,14.286L196.429,14.286C201.339,14.286 205.543,16.034 209.04,19.531C212.537,23.028 214.286,27.232 214.286,32.143Z" style="fill:white;fill-rule:nonzero;"/>
                </g>
            </g>
            <g>
            </g>
        </g>
    </g>
    <g transform="matrix(1,0,0,1,18.3166,4.70615)">
        <g transform="matrix(0.867089,0,0,0.867089,32.0378,26.047)">
            <circle cx="345" cy="348" r="79" style="fill:rgb(121,129,254);"/>
        </g>
        <g transform="matrix(0.690444,0,0,0.690444,92.9803,87.5194)">
            <circle cx="345" cy="348" r="79" style="fill:white;"/>
        </g>
        <g transform="matrix(5.34073,0,0,5.34073,-1502.44,-1449.72)">
            <g transform="matrix(13.1068,0,0,13.1068,345.626,337.666)">
            </g>
            <text x="340.897px" y="337.666px" style="font-family:'Charter-BlackItalic', 'Charter', serif;font-weight:900;font-style:italic;font-size:13.107px;fill:rgb(121,129,254);">i</text>
        </g>
    </g>
</svg>
