<?xml version="1.0" encoding="UTF-8" standalone="no"?>
<!DOCTYPE svg PUBLIC "-//W3C//DTD SVG 1.1//EN" "http://www.w3.org/Graphics/SVG/1.1/DTD/svg11.dtd">
<svg width="100%" height="100%" viewBox="0 0 512 512" version="1.1" xmlns="http://www.w3.org/2000/svg" xmlns:xlink="http://www.w3.org/1999/xlink" xml:space="preserve" xmlns:serif="http://www.serif.com/" style="fill-rule:evenodd;clip-rule:evenodd;stroke-linejoin:round;stroke-miterlimit:2;">
    <g transform="matrix(1,0,0,1,-40,-260)">
        <path d="M502,401.559L502,630.441C502,680.974 460.974,722 410.441,722L181.559,722C131.026,722 90,680.974 90,630.441L90,401.559C90,351.026 131.026,310 181.559,310L410.441,310C460.974,310 502,351.026 502,401.559Z" style="fill:rgb(230,230,230);"/>
    </g>
    <g id="gamma.svg" transform="matrix(1.795,0,0,1.795,256,256)">
        <g transform="matrix(1,0,0,1,-100,-100)">
            <path d="M98,158.333C107.667,158.333 113.167,150 113.167,135.75C113.167,126.667 112.5,115.667 110.833,105.583L150,41.667L127.333,41.667L105.917,81.833L104.583,77.75C98.583,59.917 90.167,41.667 72.333,41.667C66.667,41.667 62.083,43.167 58.333,46.167C50,53.25 50,66.667 50,70.833L57.583,70.833C58.083,67.167 60.083,56.917 68.75,56.917C83.333,56.917 90,83.333 95,103.5C87.5,121.5 83.333,134.5 83.333,141.417C83.333,149.583 88,158.333 98,158.333" style="fill:rgb(44,44,44);fill-rule:nonzero;"/>
        </g>
    </g>
</svg>
