<?xml version="1.0" encoding="UTF-8" standalone="no"?>
<!DOCTYPE svg PUBLIC "-//W3C//DTD SVG 1.1//EN" "http://www.w3.org/Graphics/SVG/1.1/DTD/svg11.dtd">
<svg width="100%" height="100%" viewBox="0 0 500 500" version="1.1" xmlns="http://www.w3.org/2000/svg" xmlns:xlink="http://www.w3.org/1999/xlink" xml:space="preserve" xmlns:serif="http://www.serif.com/" style="fill-rule:evenodd;clip-rule:evenodd;stroke-linejoin:round;stroke-miterlimit:2;">
    <g transform="matrix(1,0,0,1,-2,-7)">
        <path d="M457,152.608C457,97.081 411.919,52 356.392,52L147.608,52C92.081,52 47,97.081 47,152.608L47,361.392C47,416.919 92.081,462 147.608,462L356.392,462C411.919,462 457,416.919 457,361.392L457,152.608Z" style="fill:white;"/>
    </g>
    <g id="git.svg" transform="matrix(1.01,0,0,1.01,250,216)">
        <g transform="matrix(1,0,0,1,-100,-100)">
            <path d="M198.438,96.875L103.125,1.25C101.563,-0.312 98.75,-0.312 96.875,1.25L70.625,27.5L95,51.875C96.875,50.938 99.063,50.625 101.25,50.625C110.313,50.625 117.188,57.813 117.188,66.563C117.188,68.75 116.875,70.938 115.938,72.813L135.313,92.188C137.188,91.25 139.375,90.938 141.563,90.938C150.625,90.938 157.5,98.125 157.5,106.875C157.5,115.938 150.313,122.813 141.563,122.813C132.5,122.813 125.625,115.625 125.625,106.875C125.625,104.688 125.938,102.5 126.875,100.625L107.5,81.25L107.187,81.25L107.187,118.125C113.125,120.625 117.188,126.25 117.188,133.125C117.188,142.187 110,149.063 101.25,149.063C92.188,149.063 85.312,141.875 85.312,133.125C85.312,126.25 89.375,120.625 95.312,118.125L95.312,81.875C89.375,79.375 85.312,73.75 85.312,66.875C85.312,64.688 85.625,62.5 86.562,60.625L62.187,35.937L1.25,96.875C-0.312,98.438 -0.312,101.25 1.25,103.125L96.875,198.75C98.438,200.312 101.25,200.312 103.125,198.75L198.75,103.125C200.312,101.563 200.312,98.438 198.438,96.875Z" style="fill:rgb(224,98,13);fill-rule:nonzero;"/>
        </g>
    </g>
    <g id="box.svg" transform="matrix(1.58,0,0,1.58,250,250)">
        <g transform="matrix(1,0,0,1,-100,-100)">
            <path d="M90.625,117.969C90.653,117.824 90.653,117.676 90.625,117.531C90.473,117.159 90.25,116.819 89.969,116.531C89.32,115.881 88.416,115.549 87.5,115.625L34.375,115.625C32.661,115.625 31.25,117.036 31.25,118.75L31.25,184.375C31.25,186.089 32.661,187.5 34.375,187.5L87.5,187.5C89.214,187.5 90.625,186.089 90.625,184.375L90.625,118.75C90.673,118.492 90.673,118.227 90.625,117.969ZM37.5,181.25L37.5,121.875L84.375,121.875L84.375,181.25L37.5,181.25Z" style="fill:rgb(234,149,24);fill-rule:nonzero;"/>
            <path d="M84.375,121.875L84.375,181.25L68.75,181.25L68.75,168.75C68.75,167.036 67.339,165.625 65.625,165.625L56.25,165.625C54.536,165.625 53.125,167.036 53.125,168.75L53.125,181.25L37.5,181.25L37.5,121.875L84.375,121.875Z" style="fill:rgb(255,206,135);fill-rule:nonzero;"/>
            <path d="M90.625,117.969C90.653,117.824 90.653,117.676 90.625,117.531C90.473,117.159 90.25,116.819 89.969,116.531L88.813,115.625L70.969,97.781C70.379,97.197 69.58,96.87 68.75,96.875L15.625,96.875C14.366,96.881 13.228,97.648 12.75,98.813C12.262,99.974 12.521,101.322 13.406,102.219L32.156,120.969C32.746,121.553 33.545,121.88 34.375,121.875L87.5,121.875C89.214,121.875 90.625,120.464 90.625,118.75C90.673,118.492 90.673,118.227 90.625,117.969ZM35.656,115.625L23.156,103.125L67.469,103.125L79.969,115.625L35.656,115.625Z" style="fill:rgb(234,149,24);fill-rule:nonzero;"/>
            <path d="M79.969,115.625L35.656,115.625L23.156,103.125L67.469,103.125L79.969,115.625Z" style="fill:rgb(255,206,135);fill-rule:nonzero;"/>
            <path d="M165.625,115.625L87.5,115.625C86.67,115.62 85.871,115.947 85.281,116.531C85,116.819 84.777,117.159 84.625,117.531C84.597,117.676 84.597,117.824 84.625,117.969C84.492,118.211 84.408,118.476 84.375,118.75L84.375,184.375C84.375,186.089 85.786,187.5 87.5,187.5L165.625,187.5C167.339,187.5 168.75,186.089 168.75,184.375L168.75,118.75C168.75,117.036 167.339,115.625 165.625,115.625ZM162.5,181.25L90.625,181.25L90.625,121.875L162.5,121.875L162.5,181.25Z" style="fill:rgb(234,149,24);fill-rule:nonzero;"/>
            <rect x="90.625" y="121.875" width="71.875" height="59.375" style="fill:rgb(255,206,135);fill-rule:nonzero;"/>
            <path d="M187.25,98.813C186.772,97.648 185.634,96.881 184.375,96.875L106.25,96.875C105.42,96.87 104.621,97.197 104.031,97.781L85.281,116.531C85,116.819 84.777,117.159 84.625,117.531C84.597,117.676 84.597,117.824 84.625,117.969C84.492,118.211 84.408,118.476 84.375,118.75C84.375,120.464 85.786,121.875 87.5,121.875L165.625,121.875C166.455,121.88 167.254,121.553 167.844,120.969L186.594,102.219C187.479,101.322 187.738,99.974 187.25,98.812ZM164.344,115.625L95.031,115.625L107.531,103.125L176.844,103.125L164.344,115.625Z" style="fill:rgb(234,149,24);fill-rule:nonzero;"/>
            <path d="M176.844,103.125L164.344,115.625L95.031,115.625L107.531,103.125L176.844,103.125Z" style="fill:rgb(255,206,135);fill-rule:nonzero;"/>
        </g>
    </g>
</svg>
