<?xml version="1.0" encoding="UTF-8" standalone="no"?>
<!DOCTYPE svg PUBLIC "-//W3C//DTD SVG 1.1//EN" "http://www.w3.org/Graphics/SVG/1.1/DTD/svg11.dtd">
<svg width="100%" height="100%" viewBox="0 0 500 500" version="1.1" xmlns="http://www.w3.org/2000/svg" xmlns:xlink="http://www.w3.org/1999/xlink" xml:space="preserve" xmlns:serif="http://www.serif.com/" style="fill-rule:evenodd;clip-rule:evenodd;stroke-linecap:round;">
    <g transform="matrix(1,0,0,1,-2,-7)">
        <path d="M457,152.608C457,97.081 411.919,52 356.392,52L147.608,52C92.081,52 47,97.081 47,152.608L47,361.392C47,416.919 92.081,462 147.608,462L356.392,462C411.919,462 457,416.919 457,361.392L457,152.608Z" style="fill:rgb(24,144,255);"/>
    </g>
    <g transform="matrix(1,0,0,1,6,-2.84217e-14)">
        <g transform="matrix(22.2667,0,0,22.2667,250,250)">
            <clipPath id="_clip1">
                <rect x="0.225" y="-7.5" width="7.275" height="15"/>
            </clipPath>
            <g clip-path="url(#_clip1)">
                <g transform="matrix(1,0,0,1,-7.5,-7.5)">
                    <clipPath id="_clip2">
                        <rect x="0" y="0" width="15" height="15"/>
                    </clipPath>
                    <g clip-path="url(#_clip2)">
                        <path d="M3.393,3.081C2.262,4.212 1.563,5.774 1.563,7.5C1.563,9.226 2.262,10.788 3.393,11.919" style="fill:none;fill-rule:nonzero;stroke:white;stroke-width:1.25px;"/>
                        <g transform="matrix(1,0,0,1,0,1.09375e-05)">
                            <path d="M12.232,11.919C13.363,10.788 14.063,9.226 14.063,7.5C14.063,5.774 13.363,4.212 12.232,3.081" style="fill:none;fill-rule:nonzero;stroke:white;stroke-width:1.25px;"/>
                        </g>
                        <g transform="matrix(1,0,0,1,0,1.09375e-05)">
                            <path d="M10.906,10.594C11.698,9.802 12.187,8.708 12.187,7.5C12.187,6.292 11.698,5.198 10.906,4.406" style="fill:none;fill-rule:nonzero;stroke:white;stroke-width:1.25px;"/>
                        </g>
                        <path d="M4.719,4.406C3.927,5.198 3.438,6.292 3.438,7.5C3.438,8.708 3.927,9.802 4.719,10.594" style="fill:none;fill-rule:nonzero;stroke:white;stroke-width:1.25px;"/>
                    </g>
                </g>
            </g>
        </g>
        <g transform="matrix(-22.2667,0,0,22.2667,238,250)">
            <clipPath id="_clip3">
                <rect x="0.225" y="-7.5" width="7.275" height="15"/>
            </clipPath>
            <g clip-path="url(#_clip3)">
                <g transform="matrix(1,0,0,1,-7.5,-7.5)">
                    <clipPath id="_clip4">
                        <rect x="0" y="0" width="15" height="15"/>
                    </clipPath>
                    <g clip-path="url(#_clip4)">
                        <path d="M3.393,3.081C2.262,4.212 1.563,5.774 1.563,7.5C1.563,9.226 2.262,10.788 3.393,11.919" style="fill:none;fill-rule:nonzero;stroke:white;stroke-width:1.25px;"/>
                        <g transform="matrix(1,0,0,1,0,1.09375e-05)">
                            <path d="M12.232,11.919C13.363,10.788 14.063,9.226 14.063,7.5C14.063,5.774 13.363,4.212 12.232,3.081" style="fill:none;fill-rule:nonzero;stroke:white;stroke-width:1.25px;"/>
                        </g>
                        <g transform="matrix(1,0,0,1,0,1.09375e-05)">
                            <path d="M10.906,10.594C11.698,9.802 12.187,8.708 12.187,7.5C12.187,6.292 11.698,5.198 10.906,4.406" style="fill:none;fill-rule:nonzero;stroke:white;stroke-width:1.25px;"/>
                        </g>
                        <path d="M4.719,4.406C3.927,5.198 3.438,6.292 3.438,7.5C3.438,8.708 3.927,9.802 4.719,10.594" style="fill:none;fill-rule:nonzero;stroke:white;stroke-width:1.25px;"/>
                    </g>
                </g>
            </g>
        </g>
    </g>
    <g transform="matrix(22.2667,0,0,22.2667,252,250)">
        <g transform="matrix(1,0,0,1,-7.5,-7.5)">
            <g transform="matrix(1,0,0,1,0,-1)">
                <path d="M9.375,6.25L8.125,6.553L8.125,9.531" style="fill:none;fill-rule:nonzero;stroke:white;stroke-width:1.25px;stroke-linejoin:round;"/>
            </g>
            <g transform="matrix(1,0,0,1,0,-1)">
                <circle cx="6.875" cy="9.375" r="1.25" style="fill:none;stroke:white;stroke-width:1.25px;stroke-linejoin:round;"/>
            </g>
        </g>
    </g>
</svg>
