<?xml version="1.0" encoding="UTF-8" standalone="no"?>
<!DOCTYPE svg PUBLIC "-//W3C//DTD SVG 1.1//EN" "http://www.w3.org/Graphics/SVG/1.1/DTD/svg11.dtd">
<svg width="100%" height="100%" viewBox="0 0 512 512" version="1.1" xmlns="http://www.w3.org/2000/svg" xmlns:xlink="http://www.w3.org/1999/xlink" xml:space="preserve" xmlns:serif="http://www.serif.com/" style="fill-rule:evenodd;clip-rule:evenodd;stroke-linejoin:round;stroke-miterlimit:2;">
    <g transform="matrix(1,0,0,1,-40,-260)">
        <path d="M502,401.559L502,630.441C502,680.974 460.974,722 410.441,722L181.559,722C131.026,722 90,680.974 90,630.441L90,401.559C90,351.026 131.026,310 181.559,310L410.441,310C460.974,310 502,351.026 502,401.559Z" style="fill:rgb(171,123,255);"/>
    </g>
    <g id="Loop.svg" transform="matrix(1.14,0,0,1.14,256,256)">
        <g transform="matrix(1,0,0,1,-100,-100)">
            <path d="M9,53.167C9.397,54.19 9.991,55.124 10.75,55.917L35.75,80.917C37.314,82.494 39.446,83.382 41.667,83.382C43.888,83.382 46.019,82.494 47.583,80.917C49.16,79.353 50.048,77.221 50.048,75C50.048,72.779 49.16,70.647 47.583,69.083L36.75,58.333L137.5,58.333C158.055,58.379 174.954,75.279 175,95.833C175.001,100.404 178.762,104.165 183.333,104.165C187.904,104.165 191.666,100.404 191.667,95.833C191.621,66.136 167.198,41.712 137.5,41.667L36.75,41.667L47.583,30.917C49.152,29.348 50.034,27.218 50.034,25C50.034,20.41 46.257,16.633 41.667,16.633C39.448,16.633 37.319,17.515 35.75,19.083L10.75,44.083C9.991,44.876 9.397,45.81 9,46.833C8.167,48.861 8.167,51.139 9,53.167ZM191,146.833C190.603,145.81 190.009,144.876 189.25,144.083L164.25,119.083C162.681,117.515 160.552,116.633 158.333,116.633C153.743,116.633 149.966,120.41 149.966,125C149.966,127.218 150.848,129.348 152.417,130.917L163.25,141.667L62.5,141.667C41.945,141.621 25.046,124.721 25,104.167C24.999,99.596 21.238,95.835 16.667,95.835C12.096,95.835 8.334,99.596 8.333,104.167C8.379,133.864 32.802,158.288 62.5,158.333L163.25,158.333L152.417,169.083C150.84,170.647 149.952,172.779 149.952,175C149.952,177.221 150.84,179.353 152.417,180.917C153.981,182.494 156.112,183.382 158.333,183.382C160.554,183.382 162.686,182.494 164.25,180.917L189.25,155.917C190.009,155.124 190.603,154.19 191,153.167C191.833,151.139 191.833,148.861 191,146.833Z" style="fill:white;fill-rule:nonzero;"/>
        </g>
    </g>
</svg>
