<?xml version="1.0" encoding="UTF-8" standalone="no"?>
<!DOCTYPE svg PUBLIC "-//W3C//DTD SVG 1.1//EN" "http://www.w3.org/Graphics/SVG/1.1/DTD/svg11.dtd">
<svg width="100%" height="100%" viewBox="0 0 512 512" version="1.1" xmlns="http://www.w3.org/2000/svg" xmlns:xlink="http://www.w3.org/1999/xlink" xml:space="preserve" xmlns:serif="http://www.serif.com/" style="fill-rule:evenodd;clip-rule:evenodd;stroke-linejoin:round;stroke-miterlimit:2;">
    <g transform="matrix(1,0,0,1,-40,-260)">
        <path d="M502,401.559L502,630.441C502,680.974 460.974,722 410.441,722L181.559,722C131.026,722 90,680.974 90,630.441L90,401.559C90,351.026 131.026,310 181.559,310L410.441,310C460.974,310 502,351.026 502,401.559Z" style="fill:rgb(28,149,188);"/>
    </g>
    <g transform="matrix(1.31543,0,0,1.31543,-92.2198,-108.015)">
        <g id="server-fill.svg" transform="matrix(1.11783,0,0,1.11783,261.833,274.893)">
            <g transform="matrix(1,0,0,1,-100,-100)">
                <path d="M33.333,25L166.667,25C171.238,25 175,28.762 175,33.333L175,91.667L25,91.667L25,33.333C25,28.762 28.762,25 33.333,25ZM25,108.333L175,108.333L175,166.667C175,171.238 171.238,175 166.667,175L33.333,175C28.762,175 25,171.238 25,166.667L25,108.333ZM58.333,133.333L58.333,150L83.333,150L83.333,133.333L58.333,133.333ZM58.333,50L58.333,66.667L83.333,66.667L83.333,50L58.333,50Z" style="fill:white;fill-rule:nonzero;"/>
            </g>
        </g>
        <g transform="matrix(1.29598,0,0,1.29598,-145.323,-178.201)">
            <g transform="matrix(1,0,0,1,1.4456,0.691504)">
                <path d="M399.327,340.828C399.327,340.828 315.774,388.811 296.571,398.799C289.535,402.459 286.593,407.3 292.208,412.902C299.851,420.528 337.351,435.243 337.351,435.243L382.511,456.841L433.076,390.05L399.327,340.828Z" style="fill:rgb(28,149,188);"/>
            </g>
            <g id="纸飞机-折纸-发送.svg" serif:id="纸飞机,折纸,发送.svg" transform="matrix(0.419885,0,0,0.419885,353.036,403.541)">
                <g transform="matrix(1,0,0,1,-100,-100)">
                    <clipPath id="_clip1">
                        <rect x="0" y="0" width="200" height="200"/>
                    </clipPath>
                    <g clip-path="url(#_clip1)">
                        <g transform="matrix(1.00076,0,0,0.97856,-0.103639,2.05801)">
                            <path d="M199.844,8.532L171.3,179.813C170.929,181.96 169.719,183.639 167.727,184.83C166.693,185.396 165.521,185.728 164.272,185.728C163.452,185.728 162.554,185.533 161.597,185.162L115.365,166.263C112.827,165.228 109.918,165.97 108.18,168.079L84.108,197.442C82.761,199.16 80.925,200 78.641,200C77.684,200 76.865,199.844 76.162,199.551C74.756,199.024 73.624,198.184 72.765,196.935C71.906,195.705 71.456,194.358 71.456,192.854L71.456,158.415C71.456,155.525 72.452,152.753 74.268,150.508L166.507,38.443L50.059,137.759C49.16,138.52 47.911,138.735 46.837,138.286L4.569,120.968C1.816,119.934 0.312,117.903 0.117,114.818C-0.039,111.851 1.152,109.645 3.69,108.219L189.242,1.171C190.375,0.488 191.546,0.176 192.815,0.176C194.319,0.176 195.666,0.605 196.857,1.425C199.336,3.182 200.293,5.584 199.844,8.532Z" style="fill:white;fill-rule:nonzero;"/>
                        </g>
                    </g>
                </g>
            </g>
        </g>
    </g>
</svg>
