<?xml version="1.0" encoding="UTF-8" standalone="no"?>
<!DOCTYPE svg PUBLIC "-//W3C//DTD SVG 1.1//EN" "http://www.w3.org/Graphics/SVG/1.1/DTD/svg11.dtd">
<svg width="100%" height="100%" viewBox="0 0 500 500" version="1.1" xmlns="http://www.w3.org/2000/svg" xmlns:xlink="http://www.w3.org/1999/xlink" xml:space="preserve" xmlns:serif="http://www.serif.com/" style="fill-rule:evenodd;clip-rule:evenodd;stroke-linejoin:round;stroke-miterlimit:2;">
    <g transform="matrix(1,0,0,1,-2,-7)">
        <path d="M457,152.608C457,97.081 411.919,52 356.392,52L147.608,52C92.081,52 47,97.081 47,152.608L47,361.392C47,416.919 92.081,462 147.608,462L356.392,462C411.919,462 457,416.919 457,361.392L457,152.608Z" style="fill:white;"/>
    </g>
    <g id="share.svg" transform="matrix(1.24,0,0,1.24,250,250)">
        <g transform="matrix(1,0,0,1,-100,-100)">
            <path d="M158.659,137.304C149.509,137.304 141.185,140.904 135.36,147.291L62.415,104.843C63.248,101.567 63.248,98.133 62.415,94.857L135.36,52.697C141.185,59.071 149.509,62.959 158.659,62.959C176.408,62.684 189.732,49.372 190.007,31.623C189.744,13.874 176.42,0.275 158.659,0C140.91,0.275 127.323,13.874 127.036,31.623C127.036,33.56 127.323,35.498 127.598,37.448L55.203,79.058C49.229,72.319 40.634,68.468 31.629,68.496C13.88,68.783 0.281,82.12 0.006,99.869C0.281,117.618 13.88,130.929 31.629,131.217C40.779,131.217 49.378,127.055 55.203,120.667L127.598,162.552C127.323,164.502 127.048,166.427 127.048,168.652C127.323,186.401 140.922,199.725 158.671,200C176.42,199.725 189.732,186.413 190.007,168.652C189.732,150.903 176.42,137.591 158.659,137.316L158.659,137.304Z" style="fill:rgb(57,109,164);fill-rule:nonzero;"/>
        </g>
    </g>
</svg>
