<?xml version="1.0" encoding="UTF-8" standalone="no"?>
<!DOCTYPE svg PUBLIC "-//W3C//DTD SVG 1.1//EN" "http://www.w3.org/Graphics/SVG/1.1/DTD/svg11.dtd">
<svg width="100%" height="100%" viewBox="0 0 500 500" version="1.1" xmlns="http://www.w3.org/2000/svg" xmlns:xlink="http://www.w3.org/1999/xlink" xml:space="preserve" xmlns:serif="http://www.serif.com/" style="fill-rule:evenodd;clip-rule:evenodd;stroke-linejoin:round;stroke-miterlimit:2;">
    <g transform="matrix(1,0,0,1,-2,-7)">
        <path d="M457,152.608C457,97.081 411.919,52 356.392,52L147.608,52C92.081,52 47,97.081 47,152.608L47,361.392C47,416.919 92.081,462 147.608,462L356.392,462C411.919,462 457,416.919 457,361.392L457,152.608Z" style="fill:rgb(43,124,245);"/>
    </g>
    <g transform="matrix(0.8875,0,0,1,98.2375,28)">
        <rect x="122" y="250" width="209" height="34" style="fill:white;"/>
    </g>
    <g transform="matrix(-0.8875,0,0,1,401.762,92)">
        <rect x="122" y="250" width="209" height="34" style="fill:white;"/>
    </g>
    <g transform="matrix(-0.297249,0,0,1,428.264,92)">
        <rect x="122" y="250" width="209" height="34" style="fill:white;"/>
    </g>
    <g transform="matrix(-0.297249,0,0,1,206.389,28)">
        <rect x="122" y="250" width="209" height="34" style="fill:white;"/>
    </g>
</svg>
